<?xml version="1.0" standalone="no"?>
        <!DOCTYPE svg PUBLIC "-//W3C//DTD SVG 1.1//EN" 
        "http://www.w3.org/Graphics/SVG/1.1/DTD/svg11.dtd"> <svg xmlns="http://www.w3.org/2000/svg" xmlns:xlink="http://www.w3.org/1999/xlink" width="30" zoomAndPan="magnify" viewBox="0 0 30 30.000001" height="30" preserveAspectRatio="xMidYMid meet" version="1.0" id="IconChangeColor"><defs><clipPath id="id1"><path d="M 3.386719 4.503906 L 25.160156 4.503906 L 25.160156 26.277344 L 3.386719 26.277344 Z M 3.386719 4.503906 " clip-rule="nonzero" id="mainIconPathAttribute" fill="#ffffff"></path></clipPath></defs><g clip-path="url(#id1)"><path fill="#ffffff" d="M 4.941406 4.503906 C 4.082031 4.503906 3.386719 5.199219 3.386719 6.058594 L 3.386719 20.054688 C 3.386719 20.914062 4.082031 21.609375 4.941406 21.609375 L 13.039062 21.609375 L 14.289062 25.992188 C 14.292969 26.007812 14.300781 26.015625 14.304688 26.03125 C 14.316406 26.050781 14.320312 26.066406 14.332031 26.085938 C 14.351562 26.113281 14.371094 26.136719 14.394531 26.160156 C 14.402344 26.167969 14.40625 26.179688 14.414062 26.1875 C 14.417969 26.1875 14.421875 26.1875 14.421875 26.191406 C 14.449219 26.210938 14.476562 26.226562 14.507812 26.242188 C 14.515625 26.246094 14.527344 26.25 14.535156 26.253906 C 14.574219 26.269531 14.613281 26.277344 14.65625 26.277344 C 14.660156 26.277344 14.660156 26.277344 14.664062 26.277344 L 23.605469 26.277344 C 24.464844 26.277344 25.160156 25.582031 25.160156 24.722656 L 25.160156 10.722656 C 25.160156 9.863281 24.464844 9.167969 23.605469 9.167969 L 15.511719 9.167969 L 14.421875 5.351562 C 14.277344 4.847656 13.816406 4.503906 13.296875 4.503906 Z M 4.941406 5.28125 L 13.296875 5.28125 C 13.472656 5.28125 13.625 5.398438 13.671875 5.566406 L 14.699219 9.167969 L 14.925781 9.945312 L 18.035156 20.832031 L 4.941406 20.832031 C 4.515625 20.832031 4.164062 20.484375 4.164062 20.054688 L 4.164062 6.058594 C 4.164062 5.628906 4.515625 5.28125 4.941406 5.28125 Z M 5.332031 6.058594 C 5.117188 6.058594 4.941406 6.234375 4.941406 6.445312 L 4.941406 7.226562 C 4.941406 7.4375 5.117188 7.613281 5.332031 7.613281 C 5.546875 7.613281 5.71875 7.4375 5.71875 7.226562 L 5.71875 6.445312 C 5.71875 6.234375 5.546875 6.058594 5.332031 6.058594 Z M 7.273438 6.058594 C 7.0625 6.058594 6.886719 6.234375 6.886719 6.445312 L 6.886719 7.226562 C 6.886719 7.4375 7.0625 7.613281 7.273438 7.613281 C 7.488281 7.613281 7.664062 7.4375 7.664062 7.226562 L 7.664062 6.445312 C 7.664062 6.234375 7.488281 6.058594 7.273438 6.058594 Z M 9.21875 6.058594 C 9.003906 6.058594 8.832031 6.234375 8.832031 6.445312 L 8.832031 7.226562 C 8.832031 7.4375 9.003906 7.613281 9.21875 7.613281 C 9.433594 7.613281 9.609375 7.4375 9.609375 7.226562 L 9.609375 6.445312 C 9.609375 6.234375 9.433594 6.058594 9.21875 6.058594 Z M 11.164062 6.058594 C 10.949219 6.058594 10.773438 6.234375 10.773438 6.445312 L 10.773438 7.226562 C 10.773438 7.4375 10.949219 7.613281 11.164062 7.613281 C 11.378906 7.613281 11.550781 7.4375 11.550781 7.226562 L 11.550781 6.445312 C 11.550781 6.234375 11.378906 6.058594 11.164062 6.058594 Z M 13.109375 6.058594 C 12.894531 6.058594 12.71875 6.234375 12.71875 6.445312 L 12.71875 7.226562 C 12.71875 7.4375 12.894531 7.613281 13.109375 7.613281 C 13.320312 7.613281 13.496094 7.4375 13.496094 7.226562 L 13.496094 6.445312 C 13.496094 6.234375 13.320312 6.058594 13.109375 6.058594 Z M 10.148438 9.933594 C 9.980469 9.933594 9.832031 10.042969 9.78125 10.199219 L 7.679688 16.421875 C 7.609375 16.625 7.71875 16.84375 7.925781 16.914062 C 8.128906 16.984375 8.347656 16.871094 8.417969 16.667969 L 9.117188 14.589844 C 9.136719 14.59375 9.15625 14.601562 9.175781 14.601562 L 11.121094 14.601562 C 11.140625 14.601562 11.15625 14.59375 11.175781 14.589844 L 11.878906 16.667969 C 11.933594 16.832031 12.085938 16.933594 12.246094 16.933594 C 12.289062 16.933594 12.328125 16.925781 12.371094 16.914062 C 12.574219 16.84375 12.683594 16.625 12.617188 16.421875 L 10.515625 10.199219 C 10.464844 10.042969 10.316406 9.933594 10.148438 9.933594 Z M 15.738281 9.945312 L 23.605469 9.945312 C 24.035156 9.945312 24.382812 10.296875 24.382812 10.722656 L 24.382812 24.722656 C 24.382812 25.148438 24.035156 25.5 23.605469 25.5 L 15.492188 25.5 L 16.605469 24.164062 L 16.605469 24.332031 C 16.605469 24.546875 16.78125 24.722656 16.996094 24.722656 C 17.210938 24.722656 17.386719 24.546875 17.386719 24.332031 L 17.386719 23.554688 C 17.386719 23.46875 17.351562 23.390625 17.304688 23.328125 L 18.847656 21.472656 C 18.851562 21.46875 18.851562 21.464844 18.855469 21.460938 C 18.855469 21.460938 18.859375 21.457031 18.859375 21.453125 C 18.871094 21.441406 18.871094 21.425781 18.878906 21.414062 C 18.898438 21.382812 18.917969 21.351562 18.925781 21.3125 C 18.929688 21.292969 18.929688 21.273438 18.933594 21.25 C 18.933594 21.214844 18.933594 21.179688 18.925781 21.144531 C 18.921875 21.136719 18.925781 21.125 18.921875 21.117188 L 18.429688 19.386719 C 18.828125 19.15625 19.199219 18.878906 19.53125 18.574219 C 20.363281 19.429688 21.457031 20.042969 22.433594 20.042969 C 22.648438 20.042969 22.820312 19.871094 22.820312 19.65625 C 22.820312 19.441406 22.648438 19.265625 22.433594 19.265625 C 21.660156 19.265625 20.753906 18.734375 20.058594 18.015625 C 20.8125 17.109375 21.265625 16.03125 21.265625 14.988281 L 21.265625 14.601562 L 22.433594 14.601562 C 22.648438 14.601562 22.820312 14.425781 22.820312 14.210938 C 22.820312 13.996094 22.648438 13.824219 22.433594 13.824219 L 19.710938 13.824219 L 19.710938 13.042969 C 19.710938 12.832031 19.539062 12.65625 19.324219 12.65625 C 19.109375 12.65625 18.933594 12.832031 18.933594 13.042969 L 18.933594 13.824219 L 17.765625 13.824219 C 17.554688 13.824219 17.378906 13.996094 17.378906 14.210938 C 17.378906 14.425781 17.554688 14.601562 17.765625 14.601562 L 20.488281 14.601562 L 20.488281 14.988281 C 20.488281 15.859375 20.109375 16.699219 19.550781 17.398438 C 19.175781 16.863281 18.933594 16.289062 18.933594 15.765625 C 18.933594 15.550781 18.761719 15.378906 18.546875 15.378906 C 18.332031 15.378906 18.15625 15.550781 18.15625 15.765625 C 18.15625 16.492188 18.496094 17.28125 19.015625 17.980469 C 18.761719 18.222656 18.488281 18.429688 18.207031 18.609375 Z M 10.148438 11.539062 L 10.917969 13.824219 L 9.378906 13.824219 Z M 13.847656 21.609375 L 17.71875 21.609375 L 14.832031 25.074219 Z M 18.941406 23.167969 C 18.726562 23.167969 18.550781 23.339844 18.550781 23.554688 L 18.550781 24.332031 C 18.550781 24.546875 18.726562 24.722656 18.941406 24.722656 C 19.152344 24.722656 19.328125 24.546875 19.328125 24.332031 L 19.328125 23.554688 C 19.328125 23.339844 19.152344 23.167969 18.941406 23.167969 Z M 20.882812 23.167969 C 20.671875 23.167969 20.496094 23.339844 20.496094 23.554688 L 20.496094 24.332031 C 20.496094 24.546875 20.671875 24.722656 20.882812 24.722656 C 21.097656 24.722656 21.273438 24.546875 21.273438 24.332031 L 21.273438 23.554688 C 21.273438 23.339844 21.097656 23.167969 20.882812 23.167969 Z M 22.828125 23.167969 C 22.613281 23.167969 22.441406 23.339844 22.441406 23.554688 L 22.441406 24.332031 C 22.441406 24.546875 22.613281 24.722656 22.828125 24.722656 C 23.042969 24.722656 23.21875 24.546875 23.21875 24.332031 L 23.21875 23.554688 C 23.21875 23.339844 23.042969 23.167969 22.828125 23.167969 Z M 22.828125 23.167969 " fill-opacity="1" fill-rule="nonzero" id="mainIconPathAttribute"></path></g></svg> 